<?xml version="1.0" standalone="no"?><!DOCTYPE svg PUBLIC "-//W3C//DTD SVG 1.1//EN" "http://www.w3.org/Graphics/SVG/1.1/DTD/svg11.dtd"><svg t="1763304792654" class="icon" viewBox="0 0 1055 1024" version="1.1" xmlns="http://www.w3.org/2000/svg" p-id="28299" xmlns:xlink="http://www.w3.org/1999/xlink" width="263.75" height="256"><path d="M835.375608 125.711941l210.895902 39.471982-101.759953 58.751972A509.631761 509.631761 0 0 1 1033.215516 511.99976c0 282.767867-229.247893 511.99976-511.99976 511.99976a510.223761 510.223761 0 0 1-351.423836-139.631935h159.359926c171.51992 88.543958 381.327821 48.431977 508.079762-97.119954 126.767941-145.535932 137.679935-358.879832 26.399987-516.591758L764.159642 328.159846 835.423608 125.759941l-0.048-0.048z m-743.327651 665.599688a509.487761 509.487761 0 0 1-63.58397-139.631934h97.647954c5.679997 15.999993 12.287994 31.647985 19.839991 46.687978l2.879998-0.192h186.175913a46.559978 46.559978 0 0 1 0 93.103956H92.047957v0.032z m20.62399-372.351825c-3.455998 15.167993-6.063997 30.719986-7.839996 46.495978h416.367805a46.559978 46.559978 0 1 1 0 93.087956H11.279995c-4.191998-46.623978-2.063999-93.599956 6.335997-139.631934h95.039955v0.048zM521.199756 0c79.919963 0 155.551927 18.287991 222.943895 50.959976l-46.687978 80.895962a417.327804 417.327804 0 0 0-176.255917-38.767982 417.887804 417.887804 0 0 0-312.239854 139.631935h312.239854a46.559978 46.559978 0 0 1 0 93.103956H148.83193l-2.927998-0.16-0.048 0.16h-101.759953C118.575944 135.119937 304.095857 0 521.199756 0z" p-id="28300" fill="#FE7336"></path></svg>